<svg width="49" height="48" viewBox="0 0 49 48" fill="none" xmlns="http://www.w3.org/2000/svg">
<rect x="0.5" width="48" height="48" rx="12" fill="#F2F6FA"/>
<g clip-path="url(#clip0_72_2622)">
<path d="M15.248 23.4258C16.0589 24.6225 17.2811 25.4958 18.7074 25.8411C19.3719 26.002 20.1261 26.0018 21.2744 26.0016H27.7222C28.8705 26.0018 29.6247 26.002 30.2892 25.8411C31.7152 25.4959 32.9372 24.6229 33.748 23.4265V26.0777C33.7481 27.5531 33.7481 28.7485 33.6007 29.6898C33.4458 30.6792 33.1142 31.4906 32.3801 32.1209C31.6625 32.737 30.7669 33.002 29.6738 33.1282C28.602 33.2519 27.2308 33.2519 25.4915 33.2519H23.5045C21.7652 33.2519 20.3941 33.2519 19.3223 33.1282C18.2292 33.002 17.3336 32.737 16.616 32.1209C15.8819 31.4906 15.5503 30.6792 15.3954 29.6898C15.248 28.7485 15.248 27.5531 15.248 26.0777V23.4258Z" fill="#2BBC7C"/>
<path opacity="0.5" fill-rule="evenodd" clip-rule="evenodd" d="M16.8424 16.0006C16.8867 16.0008 16.9309 16.0011 16.9749 16.0011H32.0237C32.0677 16.0011 32.1119 16.0008 32.1562 16.0006C32.51 15.9986 32.8706 15.9965 33.2121 16.0941C34.1603 16.3649 34.8409 17.178 34.9782 18.142C35.0263 18.4794 34.9802 18.8552 34.9321 19.2461C34.9106 19.422 34.8912 19.5988 34.8717 19.7759C34.7861 20.5542 34.7 21.3379 34.4342 22.0771C33.7591 23.9554 32.2095 25.3761 30.2902 25.8407C29.6257 26.0016 28.8715 26.0014 27.7232 26.0012H21.2754C20.1271 26.0014 19.3729 26.0016 18.7083 25.8407C16.7891 25.3761 15.2394 23.9554 14.5643 22.0771C14.2988 21.3384 14.2111 20.5422 14.1249 19.7592C14.1059 19.5872 14.0871 19.416 14.0664 19.2461C14.0184 18.8552 13.9722 18.4794 14.0203 18.142C14.1577 17.178 14.8383 16.3649 15.7865 16.0941C16.128 15.9965 16.4886 15.9986 16.8424 16.0006ZM24.4955 21C23.9457 21 23.5 21.4477 23.5 22C23.5 22.5523 23.9457 23 24.4955 23H24.5045C25.0543 23 25.5 22.5523 25.5 22C25.5 21.4477 25.0543 21 24.5045 21H24.4955Z" fill="#2BBC7C"/>
<path opacity="0.5" d="M24.3206 12.5C23.6758 12.5 23.0973 12.4999 22.6178 12.5638C22.0875 12.6345 21.5811 12.7933 21.1274 13.1751C20.6869 13.5458 20.4239 14.0201 20.2196 14.533C20.0589 14.9361 19.9104 15.4289 19.7461 15.9997H21.8295C21.9183 15.7081 21.9967 15.4723 22.0758 15.2737C22.2221 14.9065 22.3307 14.7755 22.4135 14.7058C22.4832 14.6472 22.586 14.5857 22.8817 14.5463C23.2136 14.5021 23.6573 14.5 24.3792 14.5H24.613C25.3349 14.5 25.7786 14.5021 26.1105 14.5463C26.4062 14.5857 26.509 14.6472 26.5787 14.7058C26.6615 14.7755 26.7701 14.9065 26.9164 15.2737C26.9955 15.4723 27.0739 15.7081 27.1627 15.9997H29.2461C29.0818 15.4289 28.9332 14.9361 28.7726 14.533C28.5683 14.0201 28.3053 13.5458 27.8648 13.1751C27.4111 12.7933 26.9047 12.6345 26.3744 12.5638C25.8949 12.4999 25.3164 12.5 24.6716 12.5H24.3206Z" fill="#2BBC7C"/>
</g>
<defs>
<clipPath id="clip0_72_2622">
<rect width="24" height="24" fill="white" transform="translate(12.5 11)"/>
</clipPath>
</defs>
</svg>
