<svg width="44" height="44" viewBox="0 0 44 44" fill="none" xmlns="http://www.w3.org/2000/svg">
<rect width="44" height="44" rx="8" fill="#EFFFE7"/>
<path d="M16 29.625C15.55 29.625 15.1667 29.4667 14.85 29.15C14.5333 28.8333 14.375 28.45 14.375 28C14.375 27.55 14.5333 27.1667 14.85 26.85C15.1667 26.5333 15.55 26.375 16 26.375C16.45 26.375 16.8333 26.5333 17.15 26.85C17.4667 27.1667 17.625 27.55 17.625 28C17.625 28.45 17.4667 28.8333 17.15 29.15C16.8333 29.4667 16.45 29.625 16 29.625ZM22 29.625C21.55 29.625 21.1667 29.4667 20.85 29.15C20.5333 28.8333 20.375 28.45 20.375 28C20.375 27.55 20.5333 27.1667 20.85 26.85C21.1667 26.5333 21.55 26.375 22 26.375C22.45 26.375 22.8333 26.5333 23.15 26.85C23.4667 27.1667 23.625 27.55 23.625 28C23.625 28.45 23.4667 28.8333 23.15 29.15C22.8333 29.4667 22.45 29.625 22 29.625ZM28 29.625C27.55 29.625 27.1667 29.4667 26.85 29.15C26.5333 28.8333 26.375 28.45 26.375 28C26.375 27.55 26.5333 27.1667 26.85 26.85C27.1667 26.5333 27.55 26.375 28 26.375C28.45 26.375 28.8333 26.5333 29.15 26.85C29.4667 27.1667 29.625 27.55 29.625 28C29.625 28.45 29.4667 28.8333 29.15 29.15C28.8333 29.4667 28.45 29.625 28 29.625ZM16 23.625C15.55 23.625 15.1667 23.4667 14.85 23.15C14.5333 22.8333 14.375 22.45 14.375 22C14.375 21.55 14.5333 21.1667 14.85 20.85C15.1667 20.5333 15.55 20.375 16 20.375C16.45 20.375 16.8333 20.5333 17.15 20.85C17.4667 21.1667 17.625 21.55 17.625 22C17.625 22.45 17.4667 22.8333 17.15 23.15C16.8333 23.4667 16.45 23.625 16 23.625ZM22 23.625C21.55 23.625 21.1667 23.4667 20.85 23.15C20.5333 22.8333 20.375 22.45 20.375 22C20.375 21.55 20.5333 21.1667 20.85 20.85C21.1667 20.5333 21.55 20.375 22 20.375C22.45 20.375 22.8333 20.5333 23.15 20.85C23.4667 21.1667 23.625 21.55 23.625 22C23.625 22.45 23.4667 22.8333 23.15 23.15C22.8333 23.4667 22.45 23.625 22 23.625ZM28 23.625C27.55 23.625 27.1667 23.4667 26.85 23.15C26.5333 22.8333 26.375 22.45 26.375 22C26.375 21.55 26.5333 21.1667 26.85 20.85C27.1667 20.5333 27.55 20.375 28 20.375C28.45 20.375 28.8333 20.5333 29.15 20.85C29.4667 21.1667 29.625 21.55 29.625 22C29.625 22.45 29.4667 22.8333 29.15 23.15C28.8333 23.4667 28.45 23.625 28 23.625ZM16 17.625C15.55 17.625 15.1667 17.4667 14.85 17.15C14.5333 16.8333 14.375 16.45 14.375 16C14.375 15.55 14.5333 15.1667 14.85 14.85C15.1667 14.5333 15.55 14.375 16 14.375C16.45 14.375 16.8333 14.5333 17.15 14.85C17.4667 15.1667 17.625 15.55 17.625 16C17.625 16.45 17.4667 16.8333 17.15 17.15C16.8333 17.4667 16.45 17.625 16 17.625ZM22 17.625C21.55 17.625 21.1667 17.4667 20.85 17.15C20.5333 16.8333 20.375 16.45 20.375 16C20.375 15.55 20.5333 15.1667 20.85 14.85C21.1667 14.5333 21.55 14.375 22 14.375C22.45 14.375 22.8333 14.5333 23.15 14.85C23.4667 15.1667 23.625 15.55 23.625 16C23.625 16.45 23.4667 16.8333 23.15 17.15C22.8333 17.4667 22.45 17.625 22 17.625ZM28 17.625C27.55 17.625 27.1667 17.4667 26.85 17.15C26.5333 16.8333 26.375 16.45 26.375 16C26.375 15.55 26.5333 15.1667 26.85 14.85C27.1667 14.5333 27.55 14.375 28 14.375C28.45 14.375 28.8333 14.5333 29.15 14.85C29.4667 15.1667 29.625 15.55 29.625 16C29.625 16.45 29.4667 16.8333 29.15 17.15C28.8333 17.4667 28.45 17.625 28 17.625Z" fill="#2BBC7C"/>
</svg>
