<svg width="156" height="47" viewBox="0 0 156 47" fill="none" xmlns="http://www.w3.org/2000/svg">
<rect y="21" width="5" height="26" rx="2" fill="#2BBC7C"/>
<rect x="13" y="12" width="5" height="35" rx="2" fill="#2BBC7C"/>
<rect x="26" y="12" width="5" height="35" rx="2" fill="#2BBC7C"/>
<rect x="39" width="5" height="47" rx="2" fill="#2BBC7C"/>
<rect x="52" y="4" width="5" height="43" rx="2" fill="#2BBC7C"/>
<rect x="65" y="12" width="5" height="35" rx="2" fill="#2BBC7C"/>
<rect x="78" y="24" width="5" height="23" rx="2" fill="#2BBC7C"/>
<rect x="91" y="4" width="5" height="43" rx="2" fill="#2BBC7C"/>
<rect x="104" y="21" width="5" height="26" rx="2" fill="#2BBC7C"/>
<rect x="117" y="4" width="5" height="43" rx="2" fill="#2BBC7C"/>
<rect x="130" y="12" width="5" height="35" rx="2" fill="#2BBC7C"/>
<rect x="143" y="24" width="5" height="23" rx="2" fill="#2BBC7C"/>
</svg>
