<svg width="48" height="48" viewBox="0 0 48 48" fill="none" xmlns="http://www.w3.org/2000/svg">
<rect width="48" height="48" rx="12" fill="#F5F7F9"/>
<path opacity="0.5" d="M24 25C22.8133 25 21.6533 24.6481 20.6666 23.9888C19.6799 23.3295 18.9109 22.3925 18.4567 21.2961C18.0026 20.1997 17.8838 18.9933 18.1153 17.8295C18.3468 16.6656 18.9182 15.5965 19.7574 14.7574C20.5965 13.9182 21.6656 13.3468 22.8295 13.1153C23.9933 12.8838 25.1997 13.0026 26.2961 13.4567C27.3925 13.9109 28.3295 14.6799 28.9888 15.6666C29.6481 16.6533 30 17.8133 30 19C29.9981 20.5907 29.3654 22.1158 28.2406 23.2406C27.1158 24.3654 25.5907 24.9981 24 25Z" fill="#2BBC7C"/>
<path d="M27.6994 23.7129C26.6449 24.5455 25.3405 24.9983 23.9969 24.9983C22.6533 24.9983 21.349 24.5455 20.2944 23.7129C18.6123 24.3837 17.1441 25.499 16.0467 26.9396C14.9494 28.3802 14.2642 30.092 14.0644 31.8919C14.0358 32.1555 14.1131 32.4197 14.2792 32.6263C14.4454 32.833 14.6868 32.9652 14.9504 32.9939L32.9394 32.9999C33.0799 33 33.2189 32.9705 33.3472 32.9133C33.4756 32.8562 33.5904 32.7726 33.6843 32.668C33.7782 32.5635 33.849 32.4404 33.8921 32.3066C33.9352 32.1729 33.9496 32.0316 33.9344 31.8919C33.7341 30.0918 33.0483 28.3799 31.9505 26.9393C30.8526 25.4987 29.384 24.3835 27.7014 23.7129H27.6994Z" fill="#2BBC7C"/>
</svg>
